<svg xmlns:mydata="http://www.w3.org/2000/svg" mydata:contrastcolor="ffffff" mydata:template="InvertedHex1" mydata:presentation="2.5" mydata:layoutType="undefined" mydata:specialFontId="undefined" mydata:id1="200" mydata:id2="867" mydata:companyName="Checki" mydata:companyTagline="AI unit tests" version="1.1" xmlns="http://www.w3.org/2000/svg" xmlns:xlink="http://www.w3.org/1999/xlink" width="550" height="940"><g fill="#222223" fill-rule="none" stroke="none" stroke-width="1" stroke-linecap="butt" stroke-linejoin="miter" stroke-miterlimit="10" stroke-dasharray="" stroke-dashoffset="0" font-family="none" font-weight="none" font-size="none" text-anchor="none" style="mix-blend-mode: normal"><g data-paper-data="{&quot;isGlobalGroup&quot;:true,&quot;bounds&quot;:{&quot;x&quot;:150.43432264673402,&quot;y&quot;:115,&quot;width&quot;:249.13135470653197,&quot;height&quot;:240}}"><g data-paper-data="{&quot;isSecondaryText&quot;:true}" fill-rule="nonzero"><path d="M160.45387,353.95496v0v0.3034c0,0.11237 0.03371,0.20227 0.10113,0.26969c0.20227,0.20227 0.42701,0.25845 0.67422,0.16855c0.22474,-0.06742 0.40453,-0.22474 0.53938,-0.47195c0.0899,-0.22474 0.15732,-0.46072 0.20227,-0.70793c0.04495,-0.22474 0.0899,-0.46072 0.13484,-0.70793c0.06742,-0.26969 0.14608,-0.53938 0.23598,-0.80906c0.0899,-0.24721 0.19103,-0.50566 0.3034,-0.77535c0.04495,-0.13484 0.07866,-0.26969 0.10113,-0.40453l0.13484,-0.40453c0.0899,-0.22474 0.14608,-0.46072 0.16855,-0.70793c0.04495,-0.24721 0.11237,-0.48319 0.20227,-0.70793v-0.13484c0,-0.06742 0.02247,-0.11237 0.06742,-0.13484c0.0899,-0.06742 0.25845,-0.10113 0.50566,-0.10113c0.26969,0 0.46072,0.01124 0.57309,0.03371c0.56185,0.04495 1.13494,0.05619 1.71926,0.03371c0.58432,-0.02247 1.16865,-0.01124 1.75297,0.03371c0.24721,0.02247 0.49443,0.03371 0.74164,0.03371h0.80906c0.06742,0 0.14608,-0.01124 0.23598,-0.03371c0.0899,0 0.14608,0.04495 0.16855,0.13484c0.04495,0.22474 0.06742,0.44948 0.06742,0.67422c-0.02247,0.22474 -0.02247,0.44948 0,0.67422c0.04495,0.40453 0.06742,0.67422 0.06742,0.80906c0,0.13484 -0.02247,-0.13484 -0.06742,-0.80906c0.0899,0.71917 0.12361,1.44957 0.10113,2.19121c0,0.38206 0.03371,0.77535 0.10113,1.17988c0.04495,0.38206 0.2135,0.71917 0.50566,1.01133c0.22474,0.20227 0.47195,0.3034 0.74164,0.3034c0.26969,0 0.53938,0.01124 0.80906,0.03371c0.13484,0.02247 0.26969,0.03371 0.40453,0.03371c0.13484,0.02247 0.26969,0.03371 0.40453,0.03371c0.15732,0 0.31464,-0.03371 0.47195,-0.10113c0.17979,-0.04495 0.3034,-0.14608 0.37082,-0.3034c0.06742,-0.13484 0.10113,-0.29216 0.10113,-0.47195c0,-0.17979 -0.01124,-0.34835 -0.03371,-0.50566v-0.57309c0,-0.0899 0,0.10113 0,0.57309c0.02247,-0.49443 0,-1.00009 -0.06742,-1.51699c0,-0.11237 -0.02247,-0.22474 -0.06742,-0.33711c-0.04495,-0.11237 -0.07866,-0.23598 -0.10113,-0.37082v-0.43824c0.02247,-0.13484 0.02247,-0.28092 0,-0.43824c-0.06742,-0.67422 -0.15732,-1.34844 -0.26969,-2.02266l-0.26969,-2.02266c-0.06742,-0.56185 -0.20227,-1.1237 -0.40453,-1.68555c-0.17979,-0.53938 -0.34835,-1.07875 -0.50566,-1.61813c-0.13484,-0.62927 -0.28092,-1.25854 -0.43824,-1.88781c-0.15732,-0.62927 -0.35958,-1.23607 -0.6068,-1.82039c-0.29216,-0.74164 -0.62927,-1.38215 -1.01133,-1.92152c-0.38206,-0.53938 -0.97762,-0.9102 -1.78668,-1.11246c-0.17979,-0.04495 -0.38206,-0.06742 -0.6068,-0.06742c-0.22474,0 -0.42701,0.03371 -0.6068,0.10113c-0.69669,0.31464 -1.28102,0.79783 -1.75297,1.44957c-0.47195,0.62927 -0.85401,1.29225 -1.14617,1.98895c-0.11237,0.26969 -0.19103,0.55061 -0.23598,0.84277c-0.04495,0.29216 -0.12361,0.56185 -0.23598,0.80906c-0.20227,0.53938 -0.37082,1.07875 -0.50566,1.61813c-0.13484,0.53938 -0.3034,1.07875 -0.50566,1.61813c-0.24721,0.58432 -0.47195,1.19112 -0.67422,1.82039c-0.20227,0.62927 -0.38206,1.26978 -0.53938,1.92152l-0.20227,0.74164c-0.0899,0.26969 -0.14608,0.53938 -0.16855,0.80906c-0.0899,0.71917 -0.15732,1.20236 -0.20227,1.44957c-0.04495,0.24721 0.02247,-0.23598 0.20227,-1.44957c-0.15732,1.30349 -0.39329,2.59574 -0.70793,3.87676zM163.69012,347.0105v0c0.06742,-0.20227 0.13484,-0.41577 0.20227,-0.64051c0.06742,-0.20227 0.12361,-0.40453 0.16855,-0.6068c0.02247,-0.22474 0.03371,-0.38206 0.03371,-0.47195c0.02247,-0.06742 0.01124,0.0899 -0.03371,0.47195c0.02247,-0.40453 0.0899,-0.80906 0.20227,-1.21359c0.06742,-0.24721 0.14608,-0.49443 0.23598,-0.74164c0.0899,-0.22474 0.15732,-0.47195 0.20227,-0.74164l0.26969,-1.21359c0.0899,-0.38206 0.2135,-0.76412 0.37082,-1.14617c0.06742,-0.17979 0.13484,-0.34835 0.20227,-0.50566l0.20227,-0.53938c0.0899,-0.17979 0.20227,-0.35958 0.33711,-0.53938c0.11237,-0.17979 0.23598,-0.34835 0.37082,-0.50566c0.0899,-0.15732 0.20227,-0.29216 0.33711,-0.40453c0.15732,-0.13484 0.32587,-0.19103 0.50566,-0.16855c0.31464,0.06742 0.53938,0.25845 0.67422,0.57309c0.11237,0.31464 0.2135,0.61803 0.3034,0.9102c0.33711,0.76412 0.59556,1.5507 0.77535,2.35977c0.17979,0.83154 0.31464,1.66307 0.40453,2.49461v0.50566c0,0.15732 0.01124,0.32587 0.03371,0.50566l0.06742,0.47195c0.02247,0.15732 0.03371,0.31464 0.03371,0.47195c0,0.06742 0.01124,0.17979 0.03371,0.33711c0,0.15732 -0.02247,0.25845 -0.06742,0.3034c-0.0899,0.02247 -0.22474,0.02247 -0.40453,0c-0.17979,-0.02247 -0.32587,-0.04495 -0.43824,-0.06742h-0.97762c-0.15732,0 0.16855,0 0.97762,0h-2.59574h-0.77535c-0.26969,-0.02247 -0.53938,-0.02247 -0.80906,0c-0.11237,0.02247 -0.25845,0.05619 -0.43824,0.10113c-0.15732,0.04495 -0.29216,0.04495 -0.40453,0z" data-paper-data="{&quot;glyphName&quot;:&quot;A&quot;,&quot;glyphIndex&quot;:0,&quot;firstGlyphOfWord&quot;:true,&quot;word&quot;:1}"></path><path d="M184.09648,348.96574v0c0,0.26969 0.04495,0.55061 0.13484,0.84277c0.06742,0.26969 0.11237,0.53938 0.13484,0.80906c0.02247,0.22474 0.04495,0.37082 0.06742,0.43824c0,0.06742 -0.02247,-0.07866 -0.06742,-0.43824l0.13484,1.14617c0,0.11237 0.02247,0.23598 0.06742,0.37082c0.04495,0.11237 0.07866,0.22474 0.10113,0.33711c0.02247,0.17979 0.04495,0.34835 0.06742,0.50566c0.02247,0.17979 0.06742,0.34835 0.13484,0.50566c0.15732,0.33711 0.42701,0.56185 0.80906,0.67422c0.40453,0.11237 0.71917,-0.01124 0.94391,-0.37082c0.24721,-0.49443 0.34835,-1.04504 0.3034,-1.65184c-0.04495,-0.6068 -0.04495,-1.19112 0,-1.75297c0.06742,-0.74164 0.10113,-1.49452 0.10113,-2.25863c-0.02247,-0.76412 -0.03371,-1.51699 -0.03371,-2.25863c0,-0.53938 0.01124,-1.10122 0.03371,-1.68555c0.02247,-0.56185 0.01124,-1.1237 -0.03371,-1.68555c-0.02247,-0.31464 -0.12361,-0.67422 -0.3034,-1.07875c-0.15732,-0.40453 -0.42701,-0.58432 -0.80906,-0.53938c-0.0899,0 -0.16855,0.03371 -0.23598,0.10113l-0.20227,0.13484c-0.13484,0.06742 -0.25845,0.11237 -0.37082,0.13484c-0.11237,0.02247 -0.20227,0.12361 -0.26969,0.3034c-0.15732,0.5169 -0.26969,1.07875 -0.33711,1.68555c-0.04495,0.6068 -0.10113,1.17988 -0.16855,1.71926v0.33711c0.02247,0.11237 0.02247,0.23598 0,0.37082c-0.04495,0.53938 -0.0899,1.08999 -0.13484,1.65184c-0.04495,0.56185 -0.06742,1.11246 -0.06742,1.65184zM184.29875,337.13319v0c0.04495,0.15732 0.0899,0.3034 0.13484,0.43824c0.06742,0.13484 0.16855,0.25845 0.3034,0.37082c0.24721,0.15732 0.55061,0.22474 0.9102,0.20227c0.35958,-0.02247 0.64051,-0.13484 0.84277,-0.33711c0.13484,-0.17979 0.22474,-0.39329 0.26969,-0.64051c0.04495,-0.24721 0.05619,-0.47195 0.03371,-0.67422c-0.0899,-0.40453 -0.33711,-0.69669 -0.74164,-0.87648c-0.38206,-0.17979 -0.75288,-0.17979 -1.11246,0c-0.24721,0.13484 -0.41577,0.35958 -0.50566,0.67422c-0.0899,0.29216 -0.13484,0.57309 -0.13484,0.84277z" data-paper-data="{&quot;glyphName&quot;:&quot;i&quot;,&quot;glyphIndex&quot;:1,&quot;lastGlyphOfWord&quot;:true,&quot;word&quot;:1}"></path><path d="M216.44776,336.39155v0c0,0.5169 0.02247,1.04504 0.06742,1.58441l0.13484,1.5507c0.02247,0.33711 0.02247,0.68546 0,1.04504c-0.04495,0.33711 -0.05619,0.68546 -0.03371,1.04504c0.06742,0.6068 0.10113,1.21359 0.10113,1.82039c0.02247,0.62927 0.05619,1.24731 0.10113,1.8541c0.04495,0.31464 0.05619,0.62927 0.03371,0.94391c-0.02247,0.33711 -0.03371,0.66298 -0.03371,0.97762c0.02247,0.20227 0.05619,0.41577 0.10113,0.64051c0.04495,0.20227 0.07866,0.40453 0.10113,0.6068c0.04495,0.69669 0.14608,1.38215 0.3034,2.05637c0.15732,0.65174 0.46072,1.25854 0.9102,1.82039c0.17979,0.20227 0.40453,0.42701 0.67422,0.67422c0.29216,0.24721 0.55061,0.42701 0.77535,0.53938l0.47195,0.13484l0.47195,0.13484c0.38206,0.17979 0.71917,0.29216 1.01133,0.33711c0.26969,0.04495 0.62927,0.04495 1.07875,0c0.20227,-0.02247 0.44948,-0.0899 0.74164,-0.20227c0.26969,-0.11237 0.50566,-0.2135 0.70793,-0.3034c0.0899,-0.04495 0.17979,-0.10113 0.26969,-0.16855c0.06742,-0.06742 0.15732,-0.12361 0.26969,-0.16855c0.26969,-0.13484 0.5169,-0.31464 0.74164,-0.53938c0.24721,-0.24721 0.42701,-0.5169 0.53938,-0.80906l0.53938,-1.01133c0.17979,-0.33711 0.3034,-0.70793 0.37082,-1.11246l0.06742,-0.6068c0.04495,-0.20227 0.07866,-0.40453 0.10113,-0.6068c0.02247,-0.22474 0.02247,-0.43824 0,-0.64051c-0.02247,-0.20227 -0.02247,-0.40453 0,-0.6068c0,-0.06742 0.01124,-0.13484 0.03371,-0.20227c0.02247,-0.06742 0.04495,-0.14608 0.06742,-0.23598c0.02247,-0.35958 0.02247,-0.7304 0,-1.11246c0,-0.38206 0.01124,-0.76412 0.03371,-1.14617c0.04495,-0.31464 0.06742,-0.52814 0.06742,-0.64051c0.02247,-0.11237 0,0.10113 -0.06742,0.64051c0.06742,-0.56185 0.13484,-1.13494 0.20227,-1.71926c0.02247,-0.22474 0.02247,-0.46072 0,-0.70793c-0.02247,-0.24721 -0.02247,-0.48319 0,-0.70793l0.06742,-0.40453c0.02247,-0.13484 0.02247,-0.26969 0,-0.40453c0,-0.0899 -0.01124,-0.19103 -0.03371,-0.3034c-0.02247,-0.0899 -0.04495,-0.19103 -0.06742,-0.3034c-0.02247,-0.29216 -0.02247,-0.57309 0,-0.84277c0,-0.29216 -0.01124,-0.58432 -0.03371,-0.87648c0,-0.11237 -0.02247,-0.2135 -0.06742,-0.3034c-0.02247,-0.0899 -0.03371,-0.19103 -0.03371,-0.3034v-0.57309c0,-0.20227 -0.03371,-0.38206 -0.10113,-0.53938c-0.13484,-0.20227 -0.32587,-0.31464 -0.57309,-0.33711c-0.26969,-0.02247 -0.47195,0.05619 -0.6068,0.23598c-0.11237,0.20227 -0.16855,0.49443 -0.16855,0.87648c0.02247,0.35958 0.02247,0.66298 0,0.9102c-0.02247,0.13484 -0.04495,0.25845 -0.06742,0.37082c-0.04495,0.13484 -0.05619,0.26969 -0.03371,0.40453c0.02247,0.29216 0.04495,0.59556 0.06742,0.9102l0.06742,0.87648c0.02247,0.26969 0.02247,0.53938 0,0.80906c-0.02247,0.26969 -0.02247,0.53938 0,0.80906c0.06742,0.62927 0.11237,1.31473 0.13484,2.05637c0,0.71917 -0.03371,1.40462 -0.10113,2.05637c-0.02247,0.31464 -0.02247,0.62927 0,0.94391c0,0.33711 -0.01124,0.66298 -0.03371,0.97762c0,0.0899 -0.02247,0.17979 -0.06742,0.26969l-0.06742,0.26969c-0.02247,0.11237 -0.03371,0.22474 -0.03371,0.33711v0.33711c-0.02247,0.15732 -0.06742,0.31464 -0.13484,0.47195c-0.0899,0.13484 -0.16855,0.26969 -0.23598,0.40453c-0.15732,0.40453 -0.39329,0.78659 -0.70793,1.14617c-0.29216,0.35958 -0.66298,0.6068 -1.11246,0.74164l-0.40453,0.06742c-0.13484,0 -0.25845,0.01124 -0.37082,0.03371c-0.17979,0 -0.34835,-0.04495 -0.50566,-0.13484c-0.15732,-0.11237 -0.3034,-0.22474 -0.43824,-0.33711c-0.15732,-0.06742 -0.31464,-0.14608 -0.47195,-0.23598c-0.15732,-0.0899 -0.29216,-0.19103 -0.40453,-0.3034c-0.17979,-0.24721 -0.33711,-0.58432 -0.47195,-1.01133c-0.11237,-0.44948 -0.17979,-0.83154 -0.20227,-1.14617c-0.02247,-0.44948 -0.04495,-0.92143 -0.06742,-1.41586c-0.02247,-0.47195 -0.05619,-0.93267 -0.10113,-1.38215c-0.06742,-0.69669 -0.07866,-1.39339 -0.03371,-2.09008c0.02247,-0.69669 0,-1.39339 -0.06742,-2.09008v-0.6068v-0.64051c0.02247,-0.58432 0.03371,-1.17988 0.03371,-1.78668c0,-0.6068 -0.04495,-1.20236 -0.13484,-1.78668c-0.02247,-0.29216 -0.10113,-0.55061 -0.23598,-0.77535c-0.13484,-0.22474 -0.29216,-0.42701 -0.47195,-0.6068c-0.0899,-0.0899 -0.16855,-0.19103 -0.23598,-0.3034c-0.0899,-0.13484 -0.17979,-0.22474 -0.26969,-0.26969c-0.24721,-0.11237 -0.49443,-0.14608 -0.74164,-0.10113c-0.24721,0.02247 -0.48319,0.0899 -0.70793,0.20227c-0.15732,0.04495 -0.3034,0.10113 -0.43824,0.16855c-0.13484,0.06742 -0.22474,0.19103 -0.26969,0.37082z" data-paper-data="{&quot;glyphName&quot;:&quot;U&quot;,&quot;glyphIndex&quot;:2,&quot;firstGlyphOfWord&quot;:true,&quot;word&quot;:2}"></path><path d="M237.22495,345.79691v0c0,0.6068 0.01124,1.21359 0.03371,1.82039v1.8541c0.02247,0.17979 0.04495,0.37082 0.06742,0.57309l0.06742,0.53938c0,0.20227 0.01124,0.40453 0.03371,0.6068c0,0.17979 0.01124,0.37082 0.03371,0.57309c0.02247,0.31464 0.10113,0.62927 0.23598,0.94391c0.11237,0.31464 0.22474,0.61803 0.33711,0.9102c0.06742,0.11237 0.14608,0.19103 0.23598,0.23598c0.06742,0.06742 0.14608,0.13484 0.23598,0.20227c0.17979,0.17979 0.39329,0.28092 0.64051,0.3034c0.24721,0.04495 0.46072,-0.04495 0.64051,-0.26969c0.17979,-0.31464 0.28092,-0.66298 0.3034,-1.04504c0,-0.38206 0.01124,-0.74164 0.03371,-1.07875c0.02247,-0.13484 0.04495,-0.25845 0.06742,-0.37082c0.04495,-0.13484 0.06742,-0.25845 0.06742,-0.37082c0.02247,-0.22474 0.02247,-0.46072 0,-0.70793c-0.02247,-0.24721 -0.02247,-0.48319 0,-0.70793l0.06742,-0.20227c0.02247,-0.06742 0.03371,-0.14608 0.03371,-0.23598c0.02247,-0.15732 0.02247,-0.32587 0,-0.50566c-0.02247,-0.15732 -0.03371,-0.32587 -0.03371,-0.50566c0.04495,-0.22474 0.07866,-0.43824 0.10113,-0.64051c0.02247,-0.22474 0.03371,-0.44948 0.03371,-0.67422v-0.77535c0.02247,-0.24721 0.03371,-0.50566 0.03371,-0.77535c-0.02247,-0.04495 -0.03371,-0.13484 -0.03371,-0.26969c0,-0.11237 0.01124,-0.19103 0.03371,-0.23598c0.02247,-0.04495 0.06742,-0.06742 0.13484,-0.06742h0.13484c0.06742,-0.02247 0.12361,-0.06742 0.16855,-0.13484c0.02247,-0.04495 0.05619,-0.10113 0.10113,-0.16855c0.13484,-0.20227 0.24721,-0.42701 0.33711,-0.67422c0.11237,-0.22474 0.25845,-0.43824 0.43824,-0.64051c0.33711,-0.33711 0.8203,-0.57309 1.44957,-0.70793c0.62927,-0.15732 1.16865,-0.17979 1.61813,-0.06742c0.13484,0.02247 0.26969,0.05619 0.40453,0.10113c0.15732,0.04495 0.29216,0.10113 0.40453,0.16855c0.15732,0.11237 0.32587,0.28092 0.50566,0.50566c0.17979,0.20227 0.28092,0.40453 0.3034,0.6068c0.04495,0.44948 0,0.9102 -0.13484,1.38215c-0.11237,0.47195 -0.20227,0.93267 -0.26969,1.38215l-0.13484,1.07875c-0.02247,0.38206 -0.06742,0.75288 -0.13484,1.11246c-0.02247,0.0899 -0.04495,0.19103 -0.06742,0.3034l-0.06742,0.26969v0.43824c0.02247,0.15732 0.02247,0.3034 0,0.43824c-0.02247,0.33711 -0.04495,0.68546 -0.06742,1.04504c-0.02247,0.33711 -0.02247,0.67422 0,1.01133l0.20227,1.11246c0.0899,0.49443 0.19103,0.84277 0.3034,1.04504c0.22474,0.29216 0.49443,0.40453 0.80906,0.33711c0.29216,-0.0899 0.52814,-0.26969 0.70793,-0.53938l0.26969,-0.47195c0.0899,-0.15732 0.16855,-0.31464 0.23598,-0.47195c0.06742,-0.20227 0.11237,-0.41577 0.13484,-0.64051c0.04495,-0.20227 0.10113,-0.40453 0.16855,-0.6068c0.17979,-0.42701 0.31464,-0.87648 0.40453,-1.34844c0.11237,-0.44948 0.19103,-0.9102 0.23598,-1.38215c0.02247,-0.20227 0.05619,-0.40453 0.10113,-0.6068c0.04495,-0.20227 0.07866,-0.40453 0.10113,-0.6068c0.02247,-0.13484 0.02247,-0.26969 0,-0.40453c0,-0.13484 -0.01124,-0.28092 -0.03371,-0.43824c-0.02247,-0.15732 -0.02247,-0.32587 0,-0.50566c0.02247,-0.17979 0.02247,-0.35958 0,-0.53938c-0.04495,-0.31464 -0.06742,-0.52814 -0.06742,-0.64051c-0.02247,-0.11237 0,0.10113 0.06742,0.64051c-0.06742,-0.58432 -0.13484,-1.15741 -0.20227,-1.71926c-0.11237,-1.07875 -0.48319,-2.04513 -1.11246,-2.89914c-0.6068,-0.83154 -1.48328,-1.32596 -2.62945,-1.48328c-0.71917,-0.06742 -1.48328,0.03371 -2.29235,0.3034c-0.83154,0.29216 -1.51699,0.68546 -2.05637,1.17988c-0.0899,0.0899 -0.19103,0.17979 -0.3034,0.26969c-0.11237,0.11237 -0.2135,0.22474 -0.3034,0.33711c-0.02247,0.04495 -0.04495,0.10113 -0.06742,0.16855c-0.04495,0.0899 -0.0899,0.14608 -0.13484,0.16855v-0.03371c-0.02247,0 -0.03371,-0.01124 -0.03371,-0.03371c-0.02247,-0.11237 -0.03371,-0.2135 -0.03371,-0.3034c0,-0.11237 -0.01124,-0.22474 -0.03371,-0.33711c-0.04495,-0.22474 -0.11237,-0.52814 -0.20227,-0.9102c-0.0899,-0.38206 -0.23598,-0.62927 -0.43824,-0.74164c-0.11237,-0.04495 -0.24721,-0.06742 -0.40453,-0.06742c-0.13484,0 -0.25845,0.04495 -0.37082,0.13484c-0.06742,0.06742 -0.07866,0.10113 -0.03371,0.10113c0.02247,0.02247 0,0.06742 -0.06742,0.13484c-0.0899,0.06742 -0.20227,0.11237 -0.33711,0.13484c-0.13484,0.02247 -0.22474,0.13484 -0.26969,0.33711c-0.02247,0.15732 -0.04495,0.25845 -0.06742,0.3034c0,0.04495 0.02247,-0.05619 0.06742,-0.3034c-0.04495,0.26969 -0.12361,0.53938 -0.23598,0.80906c-0.06742,0.20227 -0.12361,0.43824 -0.16855,0.70793c-0.04495,0.29216 -0.07866,0.55061 -0.10113,0.77535c-0.04495,0.29216 -0.06742,0.58432 -0.06742,0.87648c-0.02247,0.31464 -0.05619,0.61803 -0.10113,0.9102v0.33711c0,0.11237 -0.01124,0.22474 -0.03371,0.33711z" data-paper-data="{&quot;glyphName&quot;:&quot;n&quot;,&quot;glyphIndex&quot;:3,&quot;word&quot;:2}"></path><path d="M259.88995,348.96574v0c0,0.26969 0.04495,0.55061 0.13484,0.84277c0.06742,0.26969 0.11237,0.53938 0.13484,0.80906c0.02247,0.22474 0.04495,0.37082 0.06742,0.43824c0,0.06742 -0.02247,-0.07866 -0.06742,-0.43824l0.13484,1.14617c0,0.11237 0.02247,0.23598 0.06742,0.37082c0.04495,0.11237 0.07866,0.22474 0.10113,0.33711c0.02247,0.17979 0.04495,0.34835 0.06742,0.50566c0.02247,0.17979 0.06742,0.34835 0.13484,0.50566c0.15732,0.33711 0.42701,0.56185 0.80906,0.67422c0.40453,0.11237 0.71917,-0.01124 0.94391,-0.37082c0.24721,-0.49443 0.34835,-1.04504 0.3034,-1.65184c-0.04495,-0.6068 -0.04495,-1.19112 0,-1.75297c0.06742,-0.74164 0.10113,-1.49452 0.10113,-2.25863c-0.02247,-0.76412 -0.03371,-1.51699 -0.03371,-2.25863c0,-0.53938 0.01124,-1.10122 0.03371,-1.68555c0.02247,-0.56185 0.01124,-1.1237 -0.03371,-1.68555c-0.02247,-0.31464 -0.12361,-0.67422 -0.3034,-1.07875c-0.15732,-0.40453 -0.42701,-0.58432 -0.80906,-0.53938c-0.0899,0 -0.16855,0.03371 -0.23598,0.10113l-0.20227,0.13484c-0.13484,0.06742 -0.25845,0.11237 -0.37082,0.13484c-0.11237,0.02247 -0.20227,0.12361 -0.26969,0.3034c-0.15732,0.5169 -0.26969,1.07875 -0.33711,1.68555c-0.04495,0.6068 -0.10113,1.17988 -0.16855,1.71926v0.33711c0.02247,0.11237 0.02247,0.23598 0,0.37082c-0.04495,0.53938 -0.0899,1.08999 -0.13484,1.65184c-0.04495,0.56185 -0.06742,1.11246 -0.06742,1.65184zM260.09222,337.13319v0c0.04495,0.15732 0.0899,0.3034 0.13484,0.43824c0.06742,0.13484 0.16855,0.25845 0.3034,0.37082c0.24721,0.15732 0.55061,0.22474 0.9102,0.20227c0.35958,-0.02247 0.64051,-0.13484 0.84277,-0.33711c0.13484,-0.17979 0.22474,-0.39329 0.26969,-0.64051c0.04495,-0.24721 0.05619,-0.47195 0.03371,-0.67422c-0.0899,-0.40453 -0.33711,-0.69669 -0.74164,-0.87648c-0.38206,-0.17979 -0.75288,-0.17979 -1.11246,0c-0.24721,0.13484 -0.41577,0.35958 -0.50566,0.67422c-0.0899,0.29216 -0.13484,0.57309 -0.13484,0.84277z" data-paper-data="{&quot;glyphName&quot;:&quot;i&quot;,&quot;glyphIndex&quot;:4,&quot;word&quot;:2}"></path><path d="M273.45299,341.68417v0c0.02247,0.11237 0.03371,0.23598 0.03371,0.37082c0,0.11237 0.02247,0.23598 0.06742,0.37082c0.04495,0.11237 0.14608,0.2135 0.3034,0.3034c0.15732,0.06742 0.3034,0.12361 0.43824,0.16855c0.13484,0.06742 0.29216,0.10113 0.47195,0.10113c0.17979,0 0.34835,-0.01124 0.50566,-0.03371h0.13484c0.06742,0 0.11237,0.02247 0.13484,0.06742c0.02247,0.0899 0.01124,0.19103 -0.03371,0.3034c-0.04495,0.11237 -0.07866,0.20227 -0.10113,0.26969v0.37082v0.33711c-0.02247,0.20227 -0.05619,0.40453 -0.10113,0.6068c-0.04495,0.20227 -0.07866,0.40453 -0.10113,0.6068c-0.06742,0.49443 -0.07866,1.00009 -0.03371,1.51699c0.04495,0.5169 0.10113,1.02257 0.16855,1.51699c0.02247,0.24721 0.02247,0.50566 0,0.77535c-0.02247,0.26969 -0.02247,0.53938 0,0.80906c0,0.0899 0.02247,0.17979 0.06742,0.26969c0.02247,0.0899 0.04495,0.19103 0.06742,0.3034c0.04495,0.40453 0.11237,0.80906 0.20227,1.21359c0.0899,0.40453 0.22474,0.79783 0.40453,1.17988c0.11237,0.22474 0.23598,0.43824 0.37082,0.64051c0.15732,0.22474 0.32587,0.41577 0.50566,0.57309c0.38206,0.29216 0.88772,0.43824 1.51699,0.43824c0.6068,0 1.1237,-0.07866 1.5507,-0.23598c0.26969,-0.0899 0.57309,-0.25845 0.9102,-0.50566c0.33711,-0.24721 0.52814,-0.5169 0.57309,-0.80906c-0.02247,-0.31464 -0.13484,-0.48319 -0.33711,-0.50566c-0.17979,-0.02247 -0.38206,-0.01124 -0.6068,0.03371c-0.33711,0.06742 -0.68546,0.13484 -1.04504,0.20227c-0.35958,0.06742 -0.64051,-0.0899 -0.84277,-0.47195c-0.17979,-0.40453 -0.33711,-0.8203 -0.47195,-1.24731c-0.13484,-0.42701 -0.23598,-0.86525 -0.3034,-1.31473l-0.06742,-0.20227l-0.06742,-0.20227c-0.04495,-0.38206 -0.04495,-0.77535 0,-1.17988l0.13484,-1.14617v-0.33711v-0.37082c0.04495,-0.20227 0.0899,-0.41577 0.13484,-0.64051c0.06742,-0.22474 0.12361,-0.43824 0.16855,-0.64051v-0.70793c-0.02247,-0.22474 -0.01124,-0.44948 0.03371,-0.67422c0.02247,-0.17979 0.03371,-0.29216 0.03371,-0.33711c0.02247,-0.06742 0.01124,0.04495 -0.03371,0.33711c0.04495,-0.29216 0.10113,-0.58432 0.16855,-0.87648v-0.10113c0,-0.02247 0.01124,-0.04495 0.03371,-0.06742c0.04495,-0.02247 0.12361,-0.02247 0.23598,0h0.26969c0.11237,-0.02247 0.2135,-0.04495 0.3034,-0.06742c0.11237,-0.02247 0.2135,-0.03371 0.3034,-0.03371c0.31464,0.02247 0.66298,0.04495 1.04504,0.06742c0.38206,0.04495 0.61803,-0.14608 0.70793,-0.57309v-0.13484c0,-0.02247 0,0.02247 0,0.13484v-0.37082c-0.06742,-0.35958 -0.24721,-0.65174 -0.53938,-0.87648c-0.29216,-0.22474 -0.6068,-0.38206 -0.94391,-0.47195c-0.0899,-0.02247 -0.25845,-0.04495 -0.50566,-0.06742c-0.24721,-0.02247 -0.38206,-0.04495 -0.40453,-0.06742c-0.02247,-0.06742 0.01124,-0.22474 0.10113,-0.47195c0.06742,-0.24721 0.11237,-0.41577 0.13484,-0.50566c0.0899,-0.33711 0.12361,-0.76412 0.10113,-1.28102c-0.02247,-0.49443 -0.13484,-0.87648 -0.33711,-1.14617c-0.22474,-0.22474 -0.47195,-0.33711 -0.74164,-0.33711c-0.26969,0.02247 -0.50566,0.13484 -0.70793,0.33711c-0.17979,0.13484 -0.34835,0.25845 -0.50566,0.37082c-0.17979,0.11237 -0.31464,0.28092 -0.40453,0.50566c-0.15732,0.31464 -0.28092,0.64051 -0.37082,0.97762c-0.0899,0.35958 -0.16855,0.70793 -0.23598,1.04504c-0.02247,0.06742 -0.03371,0.14608 -0.03371,0.23598c-0.02247,0.0899 -0.03371,0.16855 -0.03371,0.23598c-0.06742,0.04495 -0.2135,0.10113 -0.43824,0.16855c-0.24721,0.04495 -0.42701,0.07866 -0.53938,0.10113c-0.11237,0.02247 -0.26969,0.05619 -0.47195,0.10113c-0.20227,0.06742 -0.34835,0.11237 -0.43824,0.13484c-0.0899,0.0899 -0.19103,0.23598 -0.3034,0.43824c-0.11237,0.17979 -0.19103,0.33711 -0.23598,0.47195z" data-paper-data="{&quot;glyphName&quot;:&quot;t&quot;,&quot;glyphIndex&quot;:5,&quot;lastGlyphOfWord&quot;:true,&quot;word&quot;:2}"></path><path d="M308.73712,336.89722v0c0.06742,0.87648 0.48319,1.32596 1.24731,1.34844h2.1575c0.11237,0 0.28092,0.01124 0.50566,0.03371c0.20227,0 0.34835,0.03371 0.43824,0.10113c0.02247,0.06742 0.03371,0.14608 0.03371,0.23598v0.26969c0,0.0899 0.02247,0.17979 0.06742,0.26969c0.02247,0.11237 0.04495,0.2135 0.06742,0.3034c0.02247,0.17979 0.03371,0.37082 0.03371,0.57309l0.06742,0.53938c0.02247,0.33711 0.02247,0.66298 0,0.97762c-0.02247,0.33711 -0.02247,0.66298 0,0.97762c0.04495,0.44948 0.05619,0.9102 0.03371,1.38215c-0.02247,0.44948 -0.01124,0.9102 0.03371,1.38215c0.06742,0.76412 0.0899,1.5507 0.06742,2.35977c-0.02247,0.78659 -0.03371,1.57318 -0.03371,2.35977c0,0.44948 -0.02247,0.9102 -0.06742,1.38215c-0.02247,0.47195 -0.01124,0.94391 0.03371,1.41586c0.02247,0.40453 0.10113,0.84277 0.23598,1.31473c0.13484,0.47195 0.44948,0.75288 0.94391,0.84277c0.13484,0.02247 0.25845,0.01124 0.37082,-0.03371c0.11237,-0.02247 0.23598,-0.05619 0.37082,-0.10113c0.0899,-0.02247 0.19103,-0.06742 0.3034,-0.13484c0.11237,-0.04495 0.20227,-0.11237 0.26969,-0.20227c0.0899,-0.11237 0.14608,-0.24721 0.16855,-0.40453c0.02247,-0.15732 0.02247,-0.31464 0,-0.47195c0,-0.40453 -0.05619,-0.80906 -0.16855,-1.21359c-0.0899,-0.40453 -0.14608,-0.8203 -0.16855,-1.24731c0,-0.13484 0.02247,-0.25845 0.06742,-0.37082c0.02247,-0.11237 0.04495,-0.23598 0.06742,-0.37082c0.02247,-0.29216 0.03371,-0.58432 0.03371,-0.87648c-0.02247,-0.29216 -0.02247,-0.57309 0,-0.84277c0.04495,-0.35958 0.05619,-0.71917 0.03371,-1.07875c-0.02247,-0.35958 -0.03371,-0.70793 -0.03371,-1.04504v-2.35977c-0.02247,-0.78659 -0.03371,-1.57318 -0.03371,-2.35977v-1.14617c0.02247,-0.38206 0.01124,-0.75288 -0.03371,-1.11246c0,-0.06742 -0.01124,-0.2135 -0.03371,-0.43824c-0.04495,-0.20227 -0.05619,-0.32587 -0.03371,-0.37082c0.02247,-0.02247 0.07866,-0.03371 0.16855,-0.03371h0.16855h0.37082c0.06742,0 -0.05619,0 -0.37082,0h1.04504h0.67422c0.24721,0 0.48319,-0.02247 0.70793,-0.06742c0.26969,-0.04495 0.53938,-0.11237 0.80906,-0.20227c0.26969,-0.11237 0.53938,-0.20227 0.80906,-0.26969c0.26969,-0.04495 0.55061,-0.0899 0.84277,-0.13484c0.31464,-0.06742 0.49443,-0.26969 0.53938,-0.6068c0,-0.17979 -0.05619,-0.31464 -0.16855,-0.40453c-0.0899,-0.11237 -0.2135,-0.20227 -0.37082,-0.26969c-0.24721,-0.0899 -0.5169,-0.17979 -0.80906,-0.26969c-0.26969,-0.0899 -0.53938,-0.15732 -0.80906,-0.20227c-0.06742,-0.02247 -0.14608,-0.03371 -0.23598,-0.03371c-0.06742,0 -0.14608,-0.01124 -0.23598,-0.03371c-0.29216,-0.11237 -0.59556,-0.17979 -0.9102,-0.20227c-0.29216,-0.04495 -0.59556,-0.07866 -0.9102,-0.10113c-0.20227,-0.02247 -0.40453,-0.05619 -0.6068,-0.10113c-0.20227,-0.04495 -0.40453,-0.07866 -0.6068,-0.10113c-0.80906,-0.0899 -1.61813,-0.11237 -2.42719,-0.06742c-0.83154,0.04495 -1.6406,0.15732 -2.42719,0.33711c-0.20227,0.06742 -0.41577,0.13484 -0.64051,0.20227c-0.20227,0.04495 -0.41577,0.0899 -0.64051,0.13484c-0.20227,0 -0.40453,0.03371 -0.6068,0.10113c-0.20227,0.0899 -0.33711,0.23598 -0.40453,0.43824z" data-paper-data="{&quot;glyphName&quot;:&quot;T&quot;,&quot;glyphIndex&quot;:6,&quot;firstGlyphOfWord&quot;:true,&quot;word&quot;:3}"></path><path d="M330.89646,348.02183v0c0,0.17979 0.02247,0.35958 0.06742,0.53938l0.06742,0.53938c0.02247,0.11237 0.02247,0.22474 0,0.33711c-0.02247,0.11237 -0.03371,0.22474 -0.03371,0.33711c0.04495,0.31464 0.12361,0.61803 0.23598,0.9102c0.11237,0.26969 0.22474,0.55061 0.33711,0.84277c0.06742,0.20227 0.13484,0.41577 0.20227,0.64051c0.04495,0.24721 0.14608,0.44948 0.3034,0.6068c0.17979,0.17979 0.37082,0.34835 0.57309,0.50566l0.6068,0.40453c0.22474,0.17979 0.44948,0.33711 0.67422,0.47195c0.20227,0.11237 0.44948,0.19103 0.74164,0.23598c0.49443,0.0899 1.02257,0.14608 1.58441,0.16855c0.53938,0 1.04504,-0.06742 1.51699,-0.20227c0.20227,-0.06742 0.38206,-0.15732 0.53938,-0.26969c0.15732,-0.0899 0.32587,-0.19103 0.50566,-0.3034c0.31464,-0.15732 0.6068,-0.34835 0.87648,-0.57309c0.26969,-0.22474 0.50566,-0.49443 0.70793,-0.80906c0.13484,-0.15732 0.26969,-0.29216 0.40453,-0.40453c0.13484,-0.11237 0.24721,-0.25845 0.33711,-0.43824c0.06742,-0.11237 0.15732,-0.20227 0.26969,-0.26969c0.11237,-0.06742 0.20227,-0.15732 0.26969,-0.26969c0.04495,-0.06742 0.06742,-0.13484 0.06742,-0.20227c0,-0.06742 0.02247,-0.13484 0.06742,-0.20227c0.06742,-0.11237 0.13484,-0.19103 0.20227,-0.23598c0.06742,-0.06742 0.10113,-0.17979 0.10113,-0.33711c-0.0899,-0.38206 -0.28092,-0.5169 -0.57309,-0.40453c-0.29216,0.11237 -0.53938,0.22474 -0.74164,0.33711c-0.11237,0.06742 -0.20227,0.15732 -0.26969,0.26969c-0.06742,0.11237 -0.13484,0.2135 -0.20227,0.3034c-0.04495,0.04495 -0.10113,0.07866 -0.16855,0.10113c-0.06742,0.04495 -0.12361,0.07866 -0.16855,0.10113c-0.26969,0.26969 -0.56185,0.50566 -0.87648,0.70793c-0.31464,0.22474 -0.65174,0.35958 -1.01133,0.40453c-1.05628,0.0899 -1.944,-0.13484 -2.66317,-0.67422c-0.71917,-0.5169 -1.26978,-1.24731 -1.65184,-2.19121c-0.02247,-0.06742 -0.05619,-0.19103 -0.10113,-0.37082c-0.04495,-0.20227 -0.05619,-0.32587 -0.03371,-0.37082c0.02247,0 0.0899,-0.01124 0.20227,-0.03371c0.13484,-0.02247 0.2135,-0.03371 0.23598,-0.03371c0.22474,-0.04495 0.37082,-0.07866 0.43824,-0.10113c0.06742,-0.02247 -0.07866,0.01124 -0.43824,0.10113l1.14617,-0.26969c0.29216,-0.06742 0.58432,-0.14608 0.87648,-0.23598c0.31464,-0.06742 0.6068,-0.16855 0.87648,-0.3034c0.15732,-0.0899 0.29216,-0.19103 0.40453,-0.3034c0.13484,-0.11237 0.26969,-0.2135 0.40453,-0.3034c0.11237,-0.04495 0.2135,-0.0899 0.3034,-0.13484c0.0899,-0.04495 0.17979,-0.10113 0.26969,-0.16855c0.47195,-0.40453 0.96638,-0.89896 1.48328,-1.48328c0.49443,-0.6068 0.68546,-1.24731 0.57309,-1.92152c-0.02247,-0.04495 -0.05619,-0.10113 -0.10113,-0.16855c-0.04495,-0.04495 -0.07866,-0.0899 -0.10113,-0.13484v-0.16855c0,-0.06742 -0.01124,-0.12361 -0.03371,-0.16855c-0.06742,-0.35958 -0.19103,-0.68546 -0.37082,-0.97762c-0.15732,-0.29216 -0.41577,-0.52814 -0.77535,-0.70793c-0.26969,-0.0899 -0.55061,-0.14608 -0.84277,-0.16855c-0.29216,-0.02247 -0.58432,-0.03371 -0.87648,-0.03371h-0.37082h-0.33711l-0.20227,0.06742c-0.0899,0.02247 -0.16855,0.03371 -0.23598,0.03371c-0.06742,0 -0.13484,-0.01124 -0.20227,-0.03371c-0.06742,-0.04495 -0.13484,-0.06742 -0.20227,-0.06742c-0.13484,0 -0.25845,0.04495 -0.37082,0.13484c-0.13484,0.0899 -0.25845,0.15732 -0.37082,0.20227c-0.29216,0.15732 -0.56185,0.34835 -0.80906,0.57309c-0.26969,0.20227 -0.52814,0.42701 -0.77535,0.67422c-0.04495,0.06742 -0.11237,0.11237 -0.20227,0.13484l-0.20227,0.13484c-0.15732,0.11237 -0.31464,0.25845 -0.47195,0.43824c-0.13484,0.17979 -0.24721,0.35958 -0.33711,0.53938c-0.0899,0.17979 -0.15732,0.37082 -0.20227,0.57309c-0.04495,0.20227 -0.11237,0.40453 -0.20227,0.6068c-0.13484,0.31464 -0.28092,0.62927 -0.43824,0.94391c-0.15732,0.31464 -0.25845,0.64051 -0.3034,0.97762c-0.02247,0.26969 -0.04495,0.52814 -0.06742,0.77535c-0.02247,0.24721 -0.06742,0.50566 -0.13484,0.77535zM333.99787,345.83062v0c0.42701,-0.67422 0.88772,-1.29225 1.38215,-1.8541c0.49443,-0.58432 1.13494,-0.98885 1.92152,-1.21359c0.15732,-0.04495 0.42701,-0.07866 0.80906,-0.10113c0.35958,-0.02247 0.59556,0.02247 0.70793,0.13484c0.0899,0.26969 0.02247,0.53938 -0.20227,0.80906c-0.24721,0.26969 -0.46072,0.47195 -0.64051,0.6068c-0.40453,0.35958 -0.84277,0.66298 -1.31473,0.9102c-0.44948,0.24721 -0.93267,0.43824 -1.44957,0.57309c-0.17979,0.04495 -0.38206,0.0899 -0.6068,0.13484c-0.22474,0.04495 -0.42701,0.04495 -0.6068,0zM336.93072,352.90992v0h0.3034c0.15732,0 0.22474,0.02247 0.20227,0.06742c-0.06742,0.04495 -0.15732,0.05619 -0.26969,0.03371c-0.11237,-0.02247 -0.19103,-0.05619 -0.23598,-0.10113z" data-paper-data="{&quot;glyphName&quot;:&quot;e&quot;,&quot;glyphIndex&quot;:7,&quot;word&quot;:3}"></path><path d="M352.17931,350.34789v0c0.02247,0.92143 0.32587,1.7305 0.9102,2.42719c0.58432,0.69669 1.29225,1.22483 2.12379,1.58441c0.53938,0.22474 1.11246,0.33711 1.71926,0.33711c0.58432,0 1.15741,-0.04495 1.71926,-0.13484c0.78659,-0.06742 1.52823,-0.28092 2.22492,-0.64051c0.67422,-0.38206 1.1237,-0.97762 1.34844,-1.78668c0.02247,-0.17979 0.03371,-0.37082 0.03371,-0.57309l-0.06742,-0.53938c-0.11237,-0.83154 -0.40453,-1.53947 -0.87648,-2.12379c-0.47195,-0.6068 -1.07875,-1.06751 -1.82039,-1.38215c-0.33711,-0.11237 -0.67422,-0.20227 -1.01133,-0.26969c-0.35958,-0.06742 -0.69669,-0.17979 -1.01133,-0.33711c-0.13484,-0.06742 -0.24721,-0.16855 -0.33711,-0.3034c-0.06742,-0.13484 -0.15732,-0.24721 -0.26969,-0.33711c-0.13484,-0.13484 -0.25845,-0.28092 -0.37082,-0.43824c-0.13484,-0.15732 -0.2135,-0.33711 -0.23598,-0.53938c-0.06742,-0.87648 0.19103,-1.65184 0.77535,-2.32606c0.58432,-0.67422 1.31473,-1.02257 2.19121,-1.04504c0.13484,0 0.37082,0.02247 0.70793,0.06742c0.31464,0.04495 0.52814,0.11237 0.64051,0.20227c0.13484,0.17979 0.20227,0.40453 0.20227,0.67422c0,0.29216 -0.04495,0.53938 -0.13484,0.74164c-0.15732,0.20227 -0.32587,0.40453 -0.50566,0.6068c-0.17979,0.20227 -0.19103,0.44948 -0.03371,0.74164c0.17979,0.20227 0.40453,0.25845 0.67422,0.16855c0.26969,-0.0899 0.47195,-0.22474 0.6068,-0.40453c0.06742,-0.11237 0.12361,-0.23598 0.16855,-0.37082c0.04495,-0.13484 0.11237,-0.24721 0.20227,-0.33711c0.06742,-0.0899 0.14608,-0.15732 0.23598,-0.20227c0.0899,-0.04495 0.16855,-0.11237 0.23598,-0.20227c0.04495,-0.15732 0.06742,-0.41577 0.06742,-0.77535c0,-0.38206 -0.01124,-0.65174 -0.03371,-0.80906c-0.13484,-0.62927 -0.44948,-1.08999 -0.94391,-1.38215c-0.47195,-0.29216 -1.00009,-0.46072 -1.58441,-0.50566c-0.92143,-0.11237 -1.82039,-0.03371 -2.69688,0.23598c-0.85401,0.26969 -1.61813,0.7304 -2.29235,1.38215c-0.11237,0.11237 -0.2135,0.22474 -0.3034,0.33711c-0.0899,0.11237 -0.16855,0.23598 -0.23598,0.37082l-0.23598,0.47195c-0.02247,0.06742 0.05619,-0.0899 0.23598,-0.47195c-0.22474,0.40453 -0.38206,0.83154 -0.47195,1.28102c-0.11237,0.44948 -0.13484,0.92143 -0.06742,1.41586c0.0899,0.47195 0.28092,0.89896 0.57309,1.28102c0.0899,0.0899 0.19103,0.16855 0.3034,0.23598c0.0899,0.0899 0.17979,0.16855 0.26969,0.23598c0.11237,0.13484 0.2135,0.26969 0.3034,0.40453c0.11237,0.13484 0.22474,0.25845 0.33711,0.37082c0.22474,0.20227 0.47195,0.37082 0.74164,0.50566c0.26969,0.13484 0.53938,0.28092 0.80906,0.43824c0.11237,0.06742 0.23598,0.11237 0.37082,0.13484l0.40453,0.13484c0.0899,0.04495 0.17979,0.10113 0.26969,0.16855c0.06742,0.0899 0.14608,0.15732 0.23598,0.20227c0.15732,0.11237 0.32587,0.2135 0.50566,0.3034c0.15732,0.06742 0.31464,0.16855 0.47195,0.3034c0.24721,0.29216 0.37082,0.61803 0.37082,0.97762c0.02247,0.35958 -0.06742,0.69669 -0.26969,1.01133c-0.11237,0.13484 -0.26969,0.22474 -0.47195,0.26969c-0.22474,0.04495 -0.41577,0.06742 -0.57309,0.06742c-0.22474,0.04495 -0.43824,0.07866 -0.64051,0.10113c-0.20227,0.04495 -0.41577,0.06742 -0.64051,0.06742c-0.71917,-0.13484 -1.24731,-0.50566 -1.58441,-1.11246c-0.33711,-0.6068 -0.71917,-1.15741 -1.14617,-1.65184c-0.38206,-0.33711 -0.79783,-0.40453 -1.24731,-0.20227c-0.44948,0.17979 -0.74164,0.49443 -0.87648,0.94391z" data-paper-data="{&quot;glyphName&quot;:&quot;s&quot;,&quot;glyphIndex&quot;:8,&quot;word&quot;:3}"></path><path d="M371.84403,341.68417v0c0.02247,0.11237 0.03371,0.23598 0.03371,0.37082c0,0.11237 0.02247,0.23598 0.06742,0.37082c0.04495,0.11237 0.14608,0.2135 0.3034,0.3034c0.15732,0.06742 0.3034,0.12361 0.43824,0.16855c0.13484,0.06742 0.29216,0.10113 0.47195,0.10113c0.17979,0 0.34835,-0.01124 0.50566,-0.03371h0.13484c0.06742,0 0.11237,0.02247 0.13484,0.06742c0.02247,0.0899 0.01124,0.19103 -0.03371,0.3034c-0.04495,0.11237 -0.07866,0.20227 -0.10113,0.26969v0.37082v0.33711c-0.02247,0.20227 -0.05619,0.40453 -0.10113,0.6068c-0.04495,0.20227 -0.07866,0.40453 -0.10113,0.6068c-0.06742,0.49443 -0.07866,1.00009 -0.03371,1.51699c0.04495,0.5169 0.10113,1.02257 0.16855,1.51699c0.02247,0.24721 0.02247,0.50566 0,0.77535c-0.02247,0.26969 -0.02247,0.53938 0,0.80906c0,0.0899 0.02247,0.17979 0.06742,0.26969c0.02247,0.0899 0.04495,0.19103 0.06742,0.3034c0.04495,0.40453 0.11237,0.80906 0.20227,1.21359c0.0899,0.40453 0.22474,0.79783 0.40453,1.17988c0.11237,0.22474 0.23598,0.43824 0.37082,0.64051c0.15732,0.22474 0.32587,0.41577 0.50566,0.57309c0.38206,0.29216 0.88772,0.43824 1.51699,0.43824c0.6068,0 1.1237,-0.07866 1.5507,-0.23598c0.26969,-0.0899 0.57309,-0.25845 0.9102,-0.50566c0.33711,-0.24721 0.52814,-0.5169 0.57309,-0.80906c-0.02247,-0.31464 -0.13484,-0.48319 -0.33711,-0.50566c-0.17979,-0.02247 -0.38206,-0.01124 -0.6068,0.03371c-0.33711,0.06742 -0.68546,0.13484 -1.04504,0.20227c-0.35958,0.06742 -0.64051,-0.0899 -0.84277,-0.47195c-0.17979,-0.40453 -0.33711,-0.8203 -0.47195,-1.24731c-0.13484,-0.42701 -0.23598,-0.86525 -0.3034,-1.31473l-0.06742,-0.20227l-0.06742,-0.20227c-0.04495,-0.38206 -0.04495,-0.77535 0,-1.17988l0.13484,-1.14617v-0.33711v-0.37082c0.04495,-0.20227 0.0899,-0.41577 0.13484,-0.64051c0.06742,-0.22474 0.12361,-0.43824 0.16855,-0.64051v-0.70793c-0.02247,-0.22474 -0.01124,-0.44948 0.03371,-0.67422c0.02247,-0.17979 0.03371,-0.29216 0.03371,-0.33711c0.02247,-0.06742 0.01124,0.04495 -0.03371,0.33711c0.04495,-0.29216 0.10113,-0.58432 0.16855,-0.87648v-0.10113c0,-0.02247 0.01124,-0.04495 0.03371,-0.06742c0.04495,-0.02247 0.12361,-0.02247 0.23598,0h0.26969c0.11237,-0.02247 0.2135,-0.04495 0.3034,-0.06742c0.11237,-0.02247 0.2135,-0.03371 0.3034,-0.03371c0.31464,0.02247 0.66298,0.04495 1.04504,0.06742c0.38206,0.04495 0.61803,-0.14608 0.70793,-0.57309v-0.13484c0,-0.02247 0,0.02247 0,0.13484v-0.37082c-0.06742,-0.35958 -0.24721,-0.65174 -0.53938,-0.87648c-0.29216,-0.22474 -0.6068,-0.38206 -0.94391,-0.47195c-0.0899,-0.02247 -0.25845,-0.04495 -0.50566,-0.06742c-0.24721,-0.02247 -0.38206,-0.04495 -0.40453,-0.06742c-0.02247,-0.06742 0.01124,-0.22474 0.10113,-0.47195c0.06742,-0.24721 0.11237,-0.41577 0.13484,-0.50566c0.0899,-0.33711 0.12361,-0.76412 0.10113,-1.28102c-0.02247,-0.49443 -0.13484,-0.87648 -0.33711,-1.14617c-0.22474,-0.22474 -0.47195,-0.33711 -0.74164,-0.33711c-0.26969,0.02247 -0.50566,0.13484 -0.70793,0.33711c-0.17979,0.13484 -0.34835,0.25845 -0.50566,0.37082c-0.17979,0.11237 -0.31464,0.28092 -0.40453,0.50566c-0.15732,0.31464 -0.28092,0.64051 -0.37082,0.97762c-0.0899,0.35958 -0.16855,0.70793 -0.23598,1.04504c-0.02247,0.06742 -0.03371,0.14608 -0.03371,0.23598c-0.02247,0.0899 -0.03371,0.16855 -0.03371,0.23598c-0.06742,0.04495 -0.2135,0.10113 -0.43824,0.16855c-0.24721,0.04495 -0.42701,0.07866 -0.53938,0.10113c-0.11237,0.02247 -0.26969,0.05619 -0.47195,0.10113c-0.20227,0.06742 -0.34835,0.11237 -0.43824,0.13484c-0.0899,0.0899 -0.19103,0.23598 -0.3034,0.43824c-0.11237,0.17979 -0.19103,0.33711 -0.23598,0.47195z" data-paper-data="{&quot;glyphName&quot;:&quot;t&quot;,&quot;glyphIndex&quot;:9,&quot;word&quot;:3}"></path><path d="M389.45239,350.34789v0c0.02247,0.92143 0.32587,1.7305 0.9102,2.42719c0.58432,0.69669 1.29225,1.22483 2.12379,1.58441c0.53938,0.22474 1.11246,0.33711 1.71926,0.33711c0.58432,0 1.15741,-0.04495 1.71926,-0.13484c0.78659,-0.06742 1.52823,-0.28092 2.22492,-0.64051c0.67422,-0.38206 1.1237,-0.97762 1.34844,-1.78668c0.02247,-0.17979 0.03371,-0.37082 0.03371,-0.57309l-0.06742,-0.53938c-0.11237,-0.83154 -0.40453,-1.53947 -0.87648,-2.12379c-0.47195,-0.6068 -1.07875,-1.06751 -1.82039,-1.38215c-0.33711,-0.11237 -0.67422,-0.20227 -1.01133,-0.26969c-0.35958,-0.06742 -0.69669,-0.17979 -1.01133,-0.33711c-0.13484,-0.06742 -0.24721,-0.16855 -0.33711,-0.3034c-0.06742,-0.13484 -0.15732,-0.24721 -0.26969,-0.33711c-0.13484,-0.13484 -0.25845,-0.28092 -0.37082,-0.43824c-0.13484,-0.15732 -0.2135,-0.33711 -0.23598,-0.53938c-0.06742,-0.87648 0.19103,-1.65184 0.77535,-2.32606c0.58432,-0.67422 1.31473,-1.02257 2.19121,-1.04504c0.13484,0 0.37082,0.02247 0.70793,0.06742c0.31464,0.04495 0.52814,0.11237 0.64051,0.20227c0.13484,0.17979 0.20227,0.40453 0.20227,0.67422c0,0.29216 -0.04495,0.53938 -0.13484,0.74164c-0.15732,0.20227 -0.32587,0.40453 -0.50566,0.6068c-0.17979,0.20227 -0.19103,0.44948 -0.03371,0.74164c0.17979,0.20227 0.40453,0.25845 0.67422,0.16855c0.26969,-0.0899 0.47195,-0.22474 0.6068,-0.40453c0.06742,-0.11237 0.12361,-0.23598 0.16855,-0.37082c0.04495,-0.13484 0.11237,-0.24721 0.20227,-0.33711c0.06742,-0.0899 0.14608,-0.15732 0.23598,-0.20227c0.0899,-0.04495 0.16855,-0.11237 0.23598,-0.20227c0.04495,-0.15732 0.06742,-0.41577 0.06742,-0.77535c0,-0.38206 -0.01124,-0.65174 -0.03371,-0.80906c-0.13484,-0.62927 -0.44948,-1.08999 -0.94391,-1.38215c-0.47195,-0.29216 -1.00009,-0.46072 -1.58441,-0.50566c-0.92143,-0.11237 -1.82039,-0.03371 -2.69688,0.23598c-0.85401,0.26969 -1.61813,0.7304 -2.29235,1.38215c-0.11237,0.11237 -0.2135,0.22474 -0.3034,0.33711c-0.0899,0.11237 -0.16855,0.23598 -0.23598,0.37082l-0.23598,0.47195c-0.02247,0.06742 0.05619,-0.0899 0.23598,-0.47195c-0.22474,0.40453 -0.38206,0.83154 -0.47195,1.28102c-0.11237,0.44948 -0.13484,0.92143 -0.06742,1.41586c0.0899,0.47195 0.28092,0.89896 0.57309,1.28102c0.0899,0.0899 0.19103,0.16855 0.3034,0.23598c0.0899,0.0899 0.17979,0.16855 0.26969,0.23598c0.11237,0.13484 0.2135,0.26969 0.3034,0.40453c0.11237,0.13484 0.22474,0.25845 0.33711,0.37082c0.22474,0.20227 0.47195,0.37082 0.74164,0.50566c0.26969,0.13484 0.53938,0.28092 0.80906,0.43824c0.11237,0.06742 0.23598,0.11237 0.37082,0.13484l0.40453,0.13484c0.0899,0.04495 0.17979,0.10113 0.26969,0.16855c0.06742,0.0899 0.14608,0.15732 0.23598,0.20227c0.15732,0.11237 0.32587,0.2135 0.50566,0.3034c0.15732,0.06742 0.31464,0.16855 0.47195,0.3034c0.24721,0.29216 0.37082,0.61803 0.37082,0.97762c0.02247,0.35958 -0.06742,0.69669 -0.26969,1.01133c-0.11237,0.13484 -0.26969,0.22474 -0.47195,0.26969c-0.22474,0.04495 -0.41577,0.06742 -0.57309,0.06742c-0.22474,0.04495 -0.43824,0.07866 -0.64051,0.10113c-0.20227,0.04495 -0.41577,0.06742 -0.64051,0.06742c-0.71917,-0.13484 -1.24731,-0.50566 -1.58441,-1.11246c-0.33711,-0.6068 -0.71917,-1.15741 -1.14617,-1.65184c-0.38206,-0.33711 -0.79783,-0.40453 -1.24731,-0.20227c-0.44948,0.17979 -0.74164,0.49443 -0.87648,0.94391z" data-paper-data="{&quot;glyphName&quot;:&quot;s&quot;,&quot;glyphIndex&quot;:10,&quot;lastGlyphOfWord&quot;:true,&quot;word&quot;:3}"></path></g><g data-paper-data="{&quot;isPrimaryText&quot;:true}" fill-rule="nonzero"><path d="M187.74662,313.75356c-0.31891,0.38269 -0.63782,0.76538 -0.95673,1.14807c-3.25287,3.57178 -7.52624,5.54901 -12.05474,5.54901c-4.5285,0 -8.86566,-1.97723 -12.05474,-5.54901c-3.31665,-3.69934 -5.16632,-8.54675 -5.16632,-13.77685c0,-5.16632 1.84967,-10.07751 5.16632,-13.71307c3.18909,-3.57178 7.52624,-5.54901 12.05474,-5.54901c4.5285,0 8.80188,1.97723 12.05474,5.54901c0.38269,0.38269 0.7016,0.76538 1.02051,1.21185l4.65606,-4.65606c-4.46472,-4.91119 -10.77911,-7.97271 -17.73132,-7.97271c-13.45794,0 -24.30083,11.28936 -24.30083,25.12999c0,13.90441 10.84289,25.19377 24.30083,25.19377c6.95221,0 13.2666,-3.06152 17.66753,-7.90893z" data-paper-data="{&quot;glyphName&quot;:&quot;C&quot;,&quot;glyphIndex&quot;:0,&quot;firstGlyphOfWord&quot;:true,&quot;word&quot;:1}"></path><path d="M230.3528,277.20665v20.98418h-22.51494v-20.98418h-7.07977v47.83628h7.07977v-20.98418h22.51494v20.98418h7.07977v-47.83628z" data-paper-data="{&quot;glyphName&quot;:&quot;H&quot;,&quot;glyphIndex&quot;:1,&quot;word&quot;:1}"></path><path d="M255.99305,319.17501v-16.00921h20.2188v-5.9317h-20.2188v-14.15954h24.7473v-5.86792h-31.82707v47.83628h33.03893v-5.86792z" data-paper-data="{&quot;glyphName&quot;:&quot;E&quot;,&quot;glyphIndex&quot;:2,&quot;word&quot;:1}"></path><path d="M325.64268,313.75356c-0.31891,0.38269 -0.63782,0.76538 -0.95673,1.14807c-3.25287,3.57178 -7.52624,5.54901 -12.05474,5.54901c-4.5285,0 -8.86566,-1.97723 -12.05474,-5.54901c-3.31665,-3.69934 -5.16632,-8.54675 -5.16632,-13.77685c0,-5.16632 1.84967,-10.07751 5.16632,-13.71307c3.18909,-3.57178 7.52624,-5.54901 12.05474,-5.54901c4.5285,0 8.80188,1.97723 12.05474,5.54901c0.38269,0.38269 0.7016,0.76538 1.02051,1.21185l4.65606,-4.65606c-4.46472,-4.91119 -10.77911,-7.97271 -17.73132,-7.97271c-13.45794,0 -24.30083,11.28936 -24.30083,25.12999c0,13.90441 10.84289,25.19377 24.30083,25.19377c6.95221,0 13.2666,-3.06152 17.66753,-7.90893z" data-paper-data="{&quot;glyphName&quot;:&quot;C&quot;,&quot;glyphIndex&quot;:3,&quot;word&quot;:1}"></path><path d="M383.55647,277.20665h-10.39642l-25.51268,21.81334v-21.81334h-7.07977v47.83628h7.07977v-17.73132l6.95221,-5.80414l19.07073,23.53545h9.88616l-23.53545,-28.06395z" data-paper-data="{&quot;glyphName&quot;:&quot;K&quot;,&quot;glyphIndex&quot;:4,&quot;word&quot;:1}"></path><path d="M399.56568,325.04293h-7.07977v-47.83628h7.07977z" data-paper-data="{&quot;glyphName&quot;:&quot;I&quot;,&quot;glyphIndex&quot;:5,&quot;lastGlyphOfWord&quot;:true,&quot;word&quot;:1}"></path></g><g data-paper-data="{&quot;isIcon&quot;:&quot;true&quot;,&quot;iconType&quot;:&quot;icon&quot;,&quot;rawIconId&quot;:&quot;224067&quot;,&quot;selectedEffects&quot;:{&quot;container&quot;:&quot;&quot;,&quot;transformation&quot;:&quot;&quot;,&quot;pattern&quot;:&quot;&quot;},&quot;isDetailed&quot;:false,&quot;fillRule&quot;:&quot;evenodd&quot;,&quot;bounds&quot;:{&quot;x&quot;:216.29013910853928,&quot;y&quot;:115,&quot;width&quot;:117.41972178292144,&quot;height&quot;:133.4315020260471},&quot;iconStyle&quot;:&quot;standalone&quot;,&quot;suitableAsStandaloneIcon&quot;:true}" fill-rule="evenodd"><path d="M275,115l-18.53215,10.82278l18.53215,10.67452l-18.53215,10.67452l-18.53215,-10.67452l-18.68041,10.67452l18.68041,10.82278l18.53215,-10.82278l18.53215,10.82278l-18.53215,10.67452l18.53215,10.67452l18.53215,-10.67452l-18.53215,-10.67452l18.53215,-10.82278l-18.53215,-10.67452l18.53215,-10.67452zM330.74472,147.17182l-18.68041,-10.67452l-18.53215,10.67452l18.53215,10.82278zM216.29014,152.06431v21.4973l18.68041,10.67452v21.34904l-18.68041,-10.67452v21.4973l18.68041,10.67452v-21.4973l18.53215,10.82278v21.34904l18.53215,10.67452v-21.34904l-18.53215,-10.67452v-21.4973l18.53215,10.67452v-21.34904l-18.53215,-10.67452v21.34904l-18.53215,-10.67452v-21.4973zM315.02945,184.23613l18.68041,-10.67452v-21.4973l-18.68041,10.67452zM315.02945,205.58517v-21.34904l-18.53215,10.67452v-21.34904l-18.53215,10.67452v21.34904l18.53215,-10.67452v21.4973l-18.53215,10.67452v21.34904l18.53215,-10.67452v-21.34904zM315.02945,205.58517l18.68041,-10.67452v21.4973l-18.68041,10.67452z" data-paper-data="{&quot;isPathIcon&quot;:true}"></path></g></g></g></svg>